<?xml version="1.0" standalone="no"?>
<!DOCTYPE svg PUBLIC "-//W3C//DTD SVG 20010904//EN"
 "http://www.w3.org/TR/2001/REC-SVG-20010904/DTD/svg10.dtd">
<svg version="1.0" xmlns="http://www.w3.org/2000/svg"
 width="1280.000000pt" height="640.000000pt" viewBox="0 0 1280.000000 640.000000"
 preserveAspectRatio="xMidYMid meet">

<g transform="translate(0.000000,640.000000) scale(0.100000,-0.100000)"
fill="#000000" stroke="none">
<path d="M4690 5719 c-1519 -100 -2903 -668 -4065 -1668 -126 -108 -447 -428
-502 -501 -145 -192 -161 -428 -40 -618 75 -118 351 -398 612 -623 1255 -1079
2882 -1669 4508 -1636 280 6 431 19 692 63 1119 186 2416 764 3863 1721 l143
95 27 -18 c58 -37 470 -351 664 -506 498 -396 846 -696 1256 -1082 118 -111
217 -202 222 -204 4 -1 146 145 316 325 170 180 332 353 361 383 l52 56 -247
231 c-512 478 -1069 949 -1589 1343 -83 63 -152 117 -152 120 0 3 48 41 106
85 243 182 727 573 1013 819 302 260 862 775 860 793 -1 14 -712 764 -720 761
-5 -2 -104 -93 -222 -204 -450 -423 -889 -797 -1433 -1220 -165 -129 -473
-360 -502 -378 -7 -4 -54 21 -115 62 -886 594 -1858 1108 -2643 1400 -610 226
-1127 350 -1662 397 -181 16 -589 18 -803 4z m790 -1064 c930 -103 2014 -544
3303 -1342 92 -57 167 -108 167 -113 0 -9 -310 -203 -540 -337 -1119 -654
-2092 -1025 -2930 -1118 -157 -17 -571 -20 -766 -5 -1134 88 -2152 471 -3052
1150 -172 129 -382 305 -382 320 0 14 198 180 366 305 288 216 589 401 909
560 651 322 1355 518 2077 579 229 19 679 20 848 1z"/>
<path d="M4171 4472 c-27 -14 -101 -116 -370 -514 -257 -382 -338 -495 -347
-485 -6 6 -98 148 -203 314 -106 167 -204 312 -218 323 -17 13 -41 20 -69 20
-61 0 -104 -39 -111 -100 -5 -44 -1 -51 224 -405 126 -198 232 -365 236 -371
4 -6 -19 -49 -51 -95 -269 -389 -412 -611 -412 -639 0 -38 23 -84 52 -104 32
-23 100 -20 131 4 14 11 93 120 175 243 82 122 172 254 199 294 l50 72 341
-538 c242 -381 349 -541 367 -549 40 -19 99 -15 128 8 31 24 51 81 42 117 -3
14 -170 284 -371 599 l-365 574 359 532 c197 293 364 543 371 555 26 51 -5
124 -64 149 -44 18 -53 18 -94 -4z"/>
<path d="M4998 4464 c-310 -75 -556 -447 -645 -973 -27 -162 -25 -534 4 -696
93 -515 331 -866 639 -945 201 -52 370 4 544 179 181 183 288 421 351 778 30
170 33 498 5 672 -106 674 -481 1086 -898 985z m256 -237 c156 -72 308 -304
381 -582 72 -278 81 -577 25 -867 -25 -131 -60 -238 -116 -357 -141 -301 -351
-430 -547 -339 -109 51 -227 188 -301 350 -272 591 -144 1496 249 1768 95 66
203 75 309 27z"/>
<path d="M4734 3256 c-43 -19 -64 -53 -64 -104 0 -35 6 -49 29 -73 l29 -29
402 0 402 0 29 29 c23 24 29 38 29 73 0 52 -21 85 -66 104 -48 20 -744 20
-790 0z"/>
<path d="M5864 4386 c-28 -28 -34 -41 -34 -77 0 -39 19 -76 158 -309 87 -146
233 -391 325 -546 l167 -280 -210 -529 c-115 -291 -210 -539 -210 -552 0 -62
56 -113 124 -113 76 0 62 -30 496 1063 220 555 400 1018 400 1030 0 36 -38 87
-76 103 -39 16 -93 7 -124 -21 -9 -8 -77 -168 -151 -355 -74 -187 -138 -338
-142 -337 -5 1 -132 209 -282 462 -190 319 -283 465 -302 477 -47 30 -99 24
-139 -16z"/>
<path d="M7238 3924 c-15 -8 -32 -23 -38 -34 -27 -50 -14 -85 146 -392 86
-164 154 -304 151 -311 -3 -7 -95 -137 -205 -288 -110 -152 -205 -285 -211
-297 -6 -11 -11 -37 -11 -57 0 -47 47 -95 93 -95 28 0 204 53 655 196 158 50
175 58 193 87 40 65 -9 157 -84 157 -17 0 -131 -31 -252 -69 -121 -38 -221
-68 -223 -66 -2 1 60 90 138 196 115 160 140 200 140 228 0 24 -32 96 -106
239 -58 112 -103 207 -100 210 3 3 86 -24 183 -61 227 -83 215 -80 257 -63 67
28 84 116 32 165 -26 24 -675 271 -710 271 -12 -1 -33 -7 -48 -16z"/>
<path d="M2312 3864 c-53 -37 -52 -27 -52 -664 0 -637 -1 -627 52 -664 12 -9
42 -16 66 -16 37 0 50 6 78 34 l34 34 0 612 0 612 -34 34 c-28 28 -41 34 -78
34 -24 0 -54 -7 -66 -16z"/>
</g>
</svg>
